<svg width="131" height="75" viewBox="0 0 131 75" fill="none" xmlns="http://www.w3.org/2000/svg">
<path d="M17.5957 35H13.7812C13.4414 33.9219 13.2363 32.7266 13.166 31.4141C12.0996 34.0508 10.0957 35.3691 7.1543 35.3691C5.38477 35.3691 3.96094 34.8535 2.88281 33.8223C1.81641 32.7793 1.2832 31.4727 1.2832 29.9023C1.2832 25.8242 4.86328 23.7852 12.0234 23.7852C12.3047 23.7852 12.6855 23.791 13.166 23.8027V22.4668C13.166 20.627 11.9121 19.707 9.4043 19.707C6.9668 19.707 5.58398 20.627 5.25586 22.4668L1.8457 21.957C2.0332 20.4805 2.79492 19.2676 4.13086 18.3184C5.4668 17.3574 7.40039 16.877 9.93164 16.877C11.3027 16.877 12.4219 16.9941 13.2891 17.2285C14.1562 17.4512 14.8887 17.8379 15.4863 18.3887C16.084 18.9277 16.4941 19.5195 16.7168 20.1641C16.9512 20.7969 17.0684 21.875 17.0684 23.3984V31.4141C17.0684 32.5742 17.2441 33.7695 17.5957 35ZM13.166 25.9648C7.98633 25.9648 5.39648 27.2012 5.39648 29.6738C5.39648 30.4121 5.6543 31.0449 6.16992 31.5723C6.69727 32.0879 7.48828 32.3457 8.54297 32.3457C10.0664 32.3457 11.2148 31.8652 11.9883 30.9043C12.7734 29.9316 13.166 28.8301 13.166 27.5996V25.9648ZM48.3926 35H44.1914V23.9434C44.1914 21.6465 43.1719 20.498 41.1328 20.498C39.9492 20.498 39 20.9316 38.2852 21.7988C37.582 22.666 37.2305 23.9609 37.2305 25.6836V35H32.9766V23.9434C32.9766 21.6113 32.0215 20.4453 30.1113 20.4453C28.9512 20.4453 27.9727 20.9141 27.1758 21.8516C26.3906 22.7891 25.998 24.0664 25.998 25.6836V35H21.8672V17.2461H25.752V21.0254C27.0176 18.2598 28.9922 16.877 31.6758 16.877C34.2891 16.877 35.9883 18.2598 36.7734 21.0254C38.2031 18.2598 40.1777 16.877 42.6973 16.877C44.4082 16.877 45.7852 17.4102 46.8281 18.4766C47.8711 19.543 48.3926 20.8672 48.3926 22.4492V35ZM68.3965 35H64.582C64.2422 33.9219 64.0371 32.7266 63.9668 31.4141C62.9004 34.0508 60.8965 35.3691 57.9551 35.3691C56.1855 35.3691 54.7617 34.8535 53.6836 33.8223C52.6172 32.7793 52.084 31.4727 52.084 29.9023C52.084 25.8242 55.6641 23.7852 62.8242 23.7852C63.1055 23.7852 63.4863 23.791 63.9668 23.8027V22.4668C63.9668 20.627 62.7129 19.707 60.2051 19.707C57.7676 19.707 56.3848 20.627 56.0566 22.4668L52.6465 21.957C52.834 20.4805 53.5957 19.2676 54.9316 18.3184C56.2676 17.3574 58.2012 16.877 60.7324 16.877C62.1035 16.877 63.2227 16.9941 64.0898 17.2285C64.957 17.4512 65.6895 17.8379 66.2871 18.3887C66.8848 18.9277 67.2949 19.5195 67.5176 20.1641C67.752 20.7969 67.8691 21.875 67.8691 23.3984V31.4141C67.8691 32.5742 68.0449 33.7695 68.3965 35ZM63.9668 25.9648C58.7871 25.9648 56.1973 27.2012 56.1973 29.6738C56.1973 30.4121 56.4551 31.0449 56.9707 31.5723C57.498 32.0879 58.2891 32.3457 59.3438 32.3457C60.8672 32.3457 62.0156 31.8652 62.7891 30.9043C63.5742 29.9316 63.9668 28.8301 63.9668 27.5996V25.9648ZM84.3173 31.076C84.8453 31.052 85.2413 31.244 85.5053 31.652C85.7933 32.036 85.9373 32.516 85.9373 33.092C85.9373 33.692 85.7933 34.22 85.5053 34.676C85.2413 35.132 84.8693 35.36 84.3893 35.36C83.5253 35.36 82.7093 35.348 81.9413 35.324C81.1973 35.3 80.5373 35.276 79.9613 35.252C77.7533 35.156 76.1933 35.108 75.2813 35.108C74.9693 35.108 74.5133 35.216 73.9133 35.432C73.1453 35.672 72.6173 35.792 72.3293 35.792C71.0573 35.792 70.4213 34.976 70.4213 33.344C70.4213 32.24 70.8173 30.992 71.6093 29.6C72.4013 28.184 73.4333 26.816 74.7053 25.496C75.9773 24.176 77.2973 23.072 78.6653 22.184L73.5893 22.328C73.0613 22.352 72.6533 22.172 72.3653 21.788C72.1013 21.38 71.9693 20.9 71.9693 20.348C71.9693 19.772 72.1013 19.268 72.3653 18.836C72.6533 18.38 73.0373 18.152 73.5173 18.152C74.5733 18.152 75.8813 18.236 77.4413 18.404C77.7053 18.428 78.2693 18.476 79.1333 18.548C80.0213 18.62 80.8373 18.656 81.5813 18.656C81.8213 18.656 82.2773 18.56 82.9493 18.368C83.0693 18.344 83.2973 18.284 83.6333 18.188C83.9933 18.092 84.2933 18.044 84.5333 18.044C84.9173 18.044 85.2293 18.212 85.4693 18.548C85.7333 18.884 85.8653 19.4 85.8653 20.096C85.8653 20.864 85.6733 21.476 85.2893 21.932C84.9293 22.388 84.3773 22.796 83.6333 23.156C82.7933 23.54 81.8093 24.2 80.6813 25.136C79.5533 26.072 78.4853 27.116 77.4773 28.268C76.4693 29.396 75.7253 30.464 75.2453 31.472L84.3173 31.076ZM94.4648 35.3691C91.8398 35.3691 89.8359 34.4258 88.4531 32.5391C87.0703 30.6523 86.3789 28.4902 86.3789 26.0527C86.3789 23.4277 87.1406 21.2422 88.6641 19.4961C90.1992 17.75 92.2207 16.877 94.7285 16.877C97.1074 16.877 99.0586 17.7266 100.582 19.4258C102.117 21.125 102.885 23.334 102.885 26.0527C102.885 28.8535 102.088 31.1094 100.494 32.8203C98.9121 34.5195 96.9023 35.3691 94.4648 35.3691ZM94.6055 32.0645C97.3008 32.0645 98.6484 30.0547 98.6484 26.0352C98.6484 24.2188 98.3262 22.7891 97.6816 21.7461C97.0371 20.6914 96.0469 20.1641 94.7109 20.1641C93.3281 20.1641 92.3027 20.709 91.6348 21.7988C90.9668 22.877 90.6328 24.3125 90.6328 26.1055C90.6328 28.0391 90.9844 29.5156 91.6875 30.5352C92.4023 31.5547 93.375 32.0645 94.6055 32.0645ZM121.271 35H117.264V23.9082C117.264 22.7363 116.994 21.8574 116.455 21.2715C115.916 20.6738 115.266 20.375 114.504 20.375C113.461 20.375 112.547 20.832 111.762 21.7461C110.977 22.6602 110.584 24.0371 110.584 25.877V35H106.576V17.2461H110.232V21.3594C111.51 18.3711 113.303 16.877 115.611 16.877C117.17 16.877 118.5 17.3691 119.602 18.3535C120.715 19.3379 121.271 21.0664 121.271 23.5391V35Z" fill="black"/>
<path d="M79.9998 39.0181C80.0098 38.4659 79.5703 38.0101 79.0181 38.0002L70.0195 37.8375C69.4674 37.8275 69.0116 38.267 69.0016 38.8192C68.9917 39.3714 69.4312 39.8272 69.9834 39.8372L77.9821 39.9818L77.8375 47.9805C77.8275 48.5326 78.267 48.9884 78.8192 48.9984C79.3714 49.0083 79.8272 48.5688 79.8372 48.0166L79.9998 39.0181ZM9.85716 36.0409C9.47376 35.6434 8.8407 35.632 8.44318 36.0154C8.04566 36.3988 8.03422 37.0318 8.41762 37.4293L9.85716 36.0409ZM78.3058 38.2802C59.3583 56.5548 28.7124 55.5904 9.85716 36.0409L8.41762 37.4293C28.0019 57.7347 59.9131 58.7984 79.6942 39.7198L78.3058 38.2802Z" fill="#CD9842"/>
<path d="M7.602 65.136C7.602 64.352 7.76067 63.666 8.078 63.078C8.39533 62.4807 8.82933 62.0187 9.38 61.692C9.94 61.3653 10.5607 61.202 11.242 61.202C11.914 61.202 12.4973 61.3467 12.992 61.636C13.4867 61.9253 13.8553 62.2893 14.098 62.728V61.328H15.386V69H14.098V67.572C13.846 68.02 13.468 68.3933 12.964 68.692C12.4693 68.9813 11.8907 69.126 11.228 69.126C10.5467 69.126 9.93067 68.958 9.38 68.622C8.82933 68.286 8.39533 67.8147 8.078 67.208C7.76067 66.6013 7.602 65.9107 7.602 65.136ZM14.098 65.15C14.098 64.5713 13.9813 64.0673 13.748 63.638C13.5147 63.2087 13.1973 62.882 12.796 62.658C12.404 62.4247 11.97 62.308 11.494 62.308C11.018 62.308 10.584 62.42 10.192 62.644C9.8 62.868 9.48733 63.1947 9.254 63.624C9.02067 64.0533 8.904 64.5573 8.904 65.136C8.904 65.724 9.02067 66.2373 9.254 66.676C9.48733 67.1053 9.8 67.4367 10.192 67.67C10.584 67.894 11.018 68.006 11.494 68.006C11.97 68.006 12.404 67.894 12.796 67.67C13.1973 67.4367 13.5147 67.1053 13.748 66.676C13.9813 66.2373 14.098 65.7287 14.098 65.15ZM20.7954 65.15C20.7954 64.3567 20.954 63.666 21.2714 63.078C21.5887 62.4807 22.0274 62.0187 22.5874 61.692C23.1567 61.3653 23.8054 61.202 24.5334 61.202C25.476 61.202 26.2507 61.4307 26.8574 61.888C27.4734 62.3453 27.8794 62.98 28.0754 63.792H26.7034C26.5727 63.3253 26.316 62.9567 25.9334 62.686C25.56 62.4153 25.0934 62.28 24.5334 62.28C23.8054 62.28 23.2174 62.532 22.7694 63.036C22.3214 63.5307 22.0974 64.2353 22.0974 65.15C22.0974 66.074 22.3214 66.788 22.7694 67.292C23.2174 67.796 23.8054 68.048 24.5334 68.048C25.0934 68.048 25.56 67.9173 25.9334 67.656C26.3067 67.3947 26.5634 67.0213 26.7034 66.536H28.0754C27.87 67.32 27.4594 67.95 26.8434 68.426C26.2274 68.8927 25.4574 69.126 24.5334 69.126C23.8054 69.126 23.1567 68.9627 22.5874 68.636C22.0274 68.3093 21.5887 67.8473 21.2714 67.25C20.954 66.6527 20.7954 65.9527 20.7954 65.15ZM31.0493 58.64V69H29.7753V58.64H31.0493ZM36.5666 69.126C35.8479 69.126 35.1946 68.9627 34.6066 68.636C34.0279 68.3093 33.5706 67.8473 33.2346 67.25C32.9079 66.6433 32.7446 65.9433 32.7446 65.15C32.7446 64.366 32.9126 63.6753 33.2486 63.078C33.5939 62.4713 34.0606 62.0093 34.6486 61.692C35.2366 61.3653 35.8946 61.202 36.6226 61.202C37.3506 61.202 38.0086 61.3653 38.5966 61.692C39.1846 62.0093 39.6466 62.4667 39.9826 63.064C40.3279 63.6613 40.5006 64.3567 40.5006 65.15C40.5006 65.9433 40.3232 66.6433 39.9686 67.25C39.6232 67.8473 39.1519 68.3093 38.5546 68.636C37.9572 68.9627 37.2946 69.126 36.5666 69.126ZM36.5666 68.006C37.0239 68.006 37.4532 67.8987 37.8546 67.684C38.2559 67.4693 38.5779 67.1473 38.8206 66.718C39.0726 66.2887 39.1986 65.766 39.1986 65.15C39.1986 64.534 39.0772 64.0113 38.8346 63.582C38.5919 63.1527 38.2746 62.8353 37.8826 62.63C37.4906 62.4153 37.0659 62.308 36.6086 62.308C36.1419 62.308 35.7126 62.4153 35.3206 62.63C34.9379 62.8353 34.6299 63.1527 34.3966 63.582C34.1632 64.0113 34.0466 64.534 34.0466 65.15C34.0466 65.7753 34.1586 66.3027 34.3826 66.732C34.6159 67.1613 34.9239 67.4833 35.3066 67.698C35.6892 67.9033 36.1092 68.006 36.5666 68.006ZM45.9137 61.188C46.847 61.188 47.603 61.4727 48.1817 62.042C48.7603 62.602 49.0497 63.414 49.0497 64.478V69H47.7897V64.66C47.7897 63.8947 47.5983 63.3113 47.2157 62.91C46.833 62.4993 46.3103 62.294 45.6477 62.294C44.9757 62.294 44.439 62.504 44.0377 62.924C43.6457 63.344 43.4497 63.9553 43.4497 64.758V69H42.1757V61.328H43.4497V62.42C43.7017 62.028 44.0423 61.7247 44.4717 61.51C44.9103 61.2953 45.391 61.188 45.9137 61.188ZM58.1307 64.87C58.1307 65.1127 58.1167 65.3693 58.0887 65.64H51.9567C52.0034 66.396 52.2601 66.9887 52.7267 67.418C53.2027 67.838 53.7767 68.048 54.4487 68.048C54.9994 68.048 55.4567 67.922 55.8207 67.67C56.1941 67.4087 56.4554 67.0633 56.6047 66.634H57.9767C57.7714 67.3713 57.3607 67.9733 56.7447 68.44C56.1287 68.8973 55.3634 69.126 54.4487 69.126C53.7207 69.126 53.0674 68.9627 52.4887 68.636C51.9194 68.3093 51.4714 67.8473 51.1447 67.25C50.8181 66.6433 50.6547 65.9433 50.6547 65.15C50.6547 64.3567 50.8134 63.6613 51.1307 63.064C51.4481 62.4667 51.8914 62.0093 52.4607 61.692C53.0394 61.3653 53.7021 61.202 54.4487 61.202C55.1767 61.202 55.8207 61.3607 56.3807 61.678C56.9407 61.9953 57.3701 62.434 57.6687 62.994C57.9767 63.5447 58.1307 64.17 58.1307 64.87ZM56.8147 64.604C56.8147 64.1187 56.7074 63.7033 56.4927 63.358C56.2781 63.0033 55.9841 62.7373 55.6107 62.56C55.2467 62.3733 54.8407 62.28 54.3927 62.28C53.7487 62.28 53.1981 62.4853 52.7407 62.896C52.2927 63.3067 52.0361 63.876 51.9707 64.604H56.8147ZM64.8188 62.756C65.0801 62.2987 65.4628 61.9253 65.9668 61.636C66.4708 61.3467 67.0448 61.202 67.6888 61.202C68.3795 61.202 69.0001 61.3653 69.5508 61.692C70.1015 62.0187 70.5355 62.4807 70.8528 63.078C71.1701 63.666 71.3288 64.352 71.3288 65.136C71.3288 65.9107 71.1701 66.6013 70.8528 67.208C70.5355 67.8147 70.0968 68.286 69.5368 68.622C68.9861 68.958 68.3701 69.126 67.6888 69.126C67.0261 69.126 66.4428 68.9813 65.9388 68.692C65.4441 68.4027 65.0708 68.034 64.8188 67.586V69H63.5448V58.64H64.8188V62.756ZM70.0268 65.136C70.0268 64.5573 69.9101 64.0533 69.6768 63.624C69.4435 63.1947 69.1261 62.868 68.7248 62.644C68.3328 62.42 67.8988 62.308 67.4228 62.308C66.9561 62.308 66.5221 62.4247 66.1208 62.658C65.7288 62.882 65.4115 63.2133 65.1688 63.652C64.9355 64.0813 64.8188 64.5807 64.8188 65.15C64.8188 65.7287 64.9355 66.2373 65.1688 66.676C65.4115 67.1053 65.7288 67.4367 66.1208 67.67C66.5221 67.894 66.9561 68.006 67.4228 68.006C67.8988 68.006 68.3328 67.894 68.7248 67.67C69.1261 67.4367 69.4435 67.1053 69.6768 66.676C69.9101 66.2373 70.0268 65.724 70.0268 65.136ZM79.6137 61.328L74.9937 72.612H73.6777L75.1897 68.916L72.0957 61.328H73.5097L75.9177 67.544L78.2977 61.328H79.6137ZM87.7208 69.098C87.0768 69.098 86.4982 68.986 85.9848 68.762C85.4808 68.5287 85.0842 68.2113 84.7948 67.81C84.5055 67.3993 84.3562 66.928 84.3468 66.396H85.7048C85.7515 66.8533 85.9382 67.2407 86.2648 67.558C86.6008 67.866 87.0862 68.02 87.7208 68.02C88.3275 68.02 88.8035 67.8707 89.1488 67.572C89.5035 67.264 89.6808 66.872 89.6808 66.396C89.6808 66.0227 89.5782 65.7193 89.3728 65.486C89.1675 65.2527 88.9108 65.0753 88.6028 64.954C88.2948 64.8327 87.8795 64.702 87.3568 64.562C86.7128 64.394 86.1948 64.226 85.8028 64.058C85.4202 63.89 85.0888 63.6287 84.8088 63.274C84.5382 62.91 84.4028 62.4247 84.4028 61.818C84.4028 61.286 84.5382 60.8147 84.8088 60.404C85.0795 59.9933 85.4575 59.676 85.9428 59.452C86.4375 59.228 87.0022 59.116 87.6368 59.116C88.5515 59.116 89.2982 59.3447 89.8768 59.802C90.4648 60.2593 90.7962 60.866 90.8708 61.622H89.4708C89.4242 61.2487 89.2282 60.922 88.8828 60.642C88.5375 60.3527 88.0802 60.208 87.5108 60.208C86.9788 60.208 86.5448 60.348 86.2088 60.628C85.8728 60.8987 85.7048 61.2813 85.7048 61.776C85.7048 62.1307 85.8028 62.42 85.9988 62.644C86.2042 62.868 86.4515 63.0407 86.7408 63.162C87.0395 63.274 87.4548 63.4047 87.9868 63.554C88.6308 63.7313 89.1488 63.9087 89.5408 64.086C89.9328 64.254 90.2688 64.52 90.5488 64.884C90.8288 65.2387 90.9688 65.724 90.9688 66.34C90.9688 66.816 90.8428 67.264 90.5908 67.684C90.3388 68.104 89.9655 68.4447 89.4708 68.706C88.9762 68.9673 88.3928 69.098 87.7208 69.098ZM96.6516 61.188C97.2303 61.188 97.753 61.314 98.2196 61.566C98.6863 61.8087 99.0503 62.1773 99.3116 62.672C99.5823 63.1667 99.7176 63.7687 99.7176 64.478V69H98.4576V64.66C98.4576 63.8947 98.2663 63.3113 97.8836 62.91C97.501 62.4993 96.9783 62.294 96.3156 62.294C95.6436 62.294 95.107 62.504 94.7056 62.924C94.3136 63.344 94.1176 63.9553 94.1176 64.758V69H92.8436V58.64H94.1176V62.42C94.3696 62.028 94.715 61.7247 95.1536 61.51C95.6016 61.2953 96.101 61.188 96.6516 61.188ZM101.323 65.136C101.323 64.352 101.481 63.666 101.799 63.078C102.116 62.4807 102.55 62.0187 103.101 61.692C103.661 61.3653 104.281 61.202 104.963 61.202C105.635 61.202 106.218 61.3467 106.713 61.636C107.207 61.9253 107.576 62.2893 107.819 62.728V61.328H109.107V69H107.819V67.572C107.567 68.02 107.189 68.3933 106.685 68.692C106.19 68.9813 105.611 69.126 104.949 69.126C104.267 69.126 103.651 68.958 103.101 68.622C102.55 68.286 102.116 67.8147 101.799 67.208C101.481 66.6013 101.323 65.9107 101.323 65.136ZM107.819 65.15C107.819 64.5713 107.702 64.0673 107.469 63.638C107.235 63.2087 106.918 62.882 106.517 62.658C106.125 62.4247 105.691 62.308 105.215 62.308C104.739 62.308 104.305 62.42 103.913 62.644C103.521 62.868 103.208 63.1947 102.975 63.624C102.741 64.0533 102.625 64.5573 102.625 65.136C102.625 65.724 102.741 66.2373 102.975 66.676C103.208 67.1053 103.521 67.4367 103.913 67.67C104.305 67.894 104.739 68.006 105.215 68.006C105.691 68.006 106.125 67.894 106.517 67.67C106.918 67.4367 107.235 67.1053 107.469 66.676C107.702 66.2373 107.819 65.7287 107.819 65.15ZM114.382 62.378H112.772V69H111.498V62.378H110.504V61.328H111.498V60.782C111.498 59.9233 111.717 59.298 112.156 58.906C112.604 58.5047 113.318 58.304 114.298 58.304V59.368C113.738 59.368 113.341 59.48 113.108 59.704C112.884 59.9187 112.772 60.278 112.772 60.782V61.328H114.382V62.378ZM116.525 60.082C116.282 60.082 116.077 59.998 115.909 59.83C115.741 59.662 115.657 59.4567 115.657 59.214C115.657 58.9713 115.741 58.766 115.909 58.598C116.077 58.43 116.282 58.346 116.525 58.346C116.758 58.346 116.954 58.43 117.113 58.598C117.281 58.766 117.365 58.9713 117.365 59.214C117.365 59.4567 117.281 59.662 117.113 59.83C116.954 59.998 116.758 60.082 116.525 60.082ZM117.141 61.328V69H115.867V61.328H117.141Z" fill="black"/>
</svg>
